<?xml version="1.0" standalone="no"?>
<!DOCTYPE svg PUBLIC "-//W3C//DTD SVG 20010904//EN"
 "http://www.w3.org/TR/2001/REC-SVG-20010904/DTD/svg10.dtd">
<svg version="1.0" xmlns="http://www.w3.org/2000/svg"
 width="1614.000000pt" height="600.000000pt" viewBox="0 0 1614.000000 600.000000"
 preserveAspectRatio="xMidYMid meet">

<g transform="translate(0.000000,600.000000) scale(0.100000,-0.100000)"
fill="#000000" stroke="none">
<path d="M230 5997 c0 -2 -49 -280 -110 -618 -60 -338 -110 -620 -110 -628 0
-41 13 14 40 165 17 93 33 179 35 192 5 21 9 22 133 22 l127 0 24 -107 c12
-60 32 -147 43 -195 l21 -88 59 0 c52 0 59 2 54 18 -3 9 -64 283 -136 607 -71
325 -132 600 -135 613 -3 14 -13 22 -25 22 -11 0 -20 -1 -20 -3z m40 -518 c34
-162 64 -304 67 -316 5 -23 5 -23 -114 -23 -66 0 -122 2 -125 5 -3 3 12 105
33 228 60 347 71 408 75 404 2 -2 31 -136 64 -298z"/>
<path d="M1160 5370 l0 -630 55 0 55 0 0 310 0 310 150 0 150 0 0 -310 0 -310
60 0 60 0 0 630 0 630 -60 0 -60 0 0 -315 0 -316 -147 3 -148 3 -3 313 -2 312
-55 0 -55 0 0 -630z"/>
<path d="M1970 5370 l0 -630 198 2 c169 2 177 3 60 5 l-138 4 0 314 0 314 118
4 117 3 -117 2 -118 2 0 300 0 299 138 4 c117 2 109 3 -60 5 l-198 2 0 -630z"/>
<path d="M2553 5993 l107 -4 0 -2984 0 -2985 55 0 55 0 0 2985 0 2985 6688 3
6687 2 -6850 0 c-3767 1 -6802 -1 -6742 -2z"/>
<path d="M6848 1430 c-141 -24 -270 -135 -318 -273 -10 -29 -48 -223 -85 -432
-75 -421 -80 -499 -38 -580 40 -77 106 -123 193 -135 188 -27 371 88 436 274
21 59 154 813 154 873 0 66 -25 143 -61 187 -56 67 -175 104 -281 86z m144
-39 c57 -50 54 -90 -52 -680 -50 -283 -99 -533 -107 -555 -37 -96 -89 -136
-176 -136 -73 0 -102 23 -118 94 -11 51 -7 83 81 583 51 290 101 551 112 580
36 99 90 143 175 143 44 0 58 -5 85 -29z"/>
<path d="M9175 1430 c-91 -12 -255 -83 -255 -110 0 -5 23 7 51 26 130 87 296
85 372 -5 49 -59 58 -137 32 -276 -41 -215 -109 -297 -262 -314 -45 -6 -55 -9
-30 -10 118 -4 188 -53 207 -147 9 -44 8 -74 -9 -172 -28 -166 -52 -225 -120
-293 -72 -72 -140 -99 -250 -99 -79 0 -168 23 -218 55 -13 9 -23 11 -23 5 0
-15 72 -48 142 -66 75 -20 224 -22 298 -4 135 31 255 119 304 224 27 58 56
198 56 272 -1 120 -80 199 -220 220 l-55 8 63 8 c120 16 204 73 251 171 35 71
66 231 57 290 -25 155 -185 244 -391 217z"/>
<path d="M11738 1430 c-147 -25 -280 -143 -326 -290 -6 -19 -41 -201 -77 -403
-73 -411 -79 -499 -44 -577 23 -51 71 -105 112 -127 45 -23 136 -34 200 -23
134 21 238 103 302 235 31 63 42 113 106 475 78 444 80 478 36 573 -48 106
-171 160 -309 137z m130 -26 c34 -24 52 -68 52 -128 0 -47 -149 -918 -181
-1061 -30 -132 -92 -195 -192 -195 -51 0 -62 4 -87 28 -53 54 -52 76 39 597
46 258 89 503 98 544 22 113 64 184 128 219 30 17 117 15 143 -4z"/>
<path d="M12588 1430 c-64 -11 -145 -50 -193 -91 -53 -47 -109 -136 -128 -206
-26 -94 -147 -792 -147 -848 0 -110 51 -205 132 -246 89 -45 224 -43 324 6 56
28 133 96 154 136 7 13 -11 -2 -39 -33 -114 -126 -302 -167 -382 -82 -44 47
-40 100 60 657 57 317 99 527 112 558 66 152 250 184 378 65 24 -22 30 -25 23
-10 -34 66 -181 113 -294 94z"/>
<path d="M5715 1408 c-4 -12 -245 -1372 -245 -1383 0 -3 41 -5 90 -5 50 0 90
3 90 7 0 16 242 1369 246 1375 3 5 70 8 150 8 137 0 144 -1 144 -20 0 -17
-219 -1266 -236 -1343 l-6 -27 91 0 c86 0 91 1 96 23 3 12 57 315 120 672 63
358 117 662 121 678 l6 27 -332 0 c-256 0 -332 -3 -335 -12z"/>
<path d="M7411 1368 c-6 -29 -60 -334 -121 -678 -60 -344 -112 -635 -115 -648
-6 -23 -5 -23 87 -20 l92 3 63 359 c35 198 65 362 67 364 12 12 50 -14 61 -41
7 -18 41 -179 76 -359 l64 -328 92 0 c51 0 93 4 93 8 0 37 -134 624 -150 656
-23 49 -51 68 -108 76 l-43 5 221 323 c122 178 220 326 217 328 -6 6 -37 -37
-266 -373 -178 -262 -195 -283 -222 -283 -22 0 -29 5 -29 20 0 18 93 562 105
618 5 22 4 22 -84 22 l-90 0 -10 -52z"/>
<path d="M8452 1393 c-5 -16 -120 -329 -256 -697 -136 -367 -245 -670 -242
-673 6 -7 19 25 101 250 l68 187 133 0 c74 0 134 -3 134 -7 0 -5 7 -98 15
-208 8 -110 15 -206 15 -212 0 -10 25 -13 93 -13 l92 0 -46 697 c-26 384 -47
699 -48 701 -1 1 -12 2 -25 2 -17 0 -27 -8 -34 -27z m-78 -611 c9 -162 16
-298 16 -303 0 -5 -57 -9 -131 -9 -111 0 -130 2 -125 15 3 8 51 142 107 297
102 286 108 302 114 296 2 -2 11 -135 19 -296z"/>
<path d="M9700 733 c-140 -379 -256 -694 -258 -702 -3 -8 -1 -12 4 -8 6 3 46
103 89 221 l78 216 133 0 132 0 6 -67 c3 -38 11 -135 17 -218 5 -82 12 -151
13 -153 2 -1 43 -1 92 0 l89 3 -46 695 c-26 382 -47 696 -48 698 -1 1 -12 2
-25 2 -22 0 -39 -44 -276 -687z m165 49 c8 -155 15 -289 15 -297 0 -12 -22
-15 -131 -15 -121 0 -131 1 -124 18 4 9 49 134 100 277 110 308 116 323 121
310 2 -5 10 -137 19 -293z"/>
<path d="M10610 1412 c0 -30 -255 -1204 -270 -1245 -31 -80 -57 -117 -98 -134
-34 -14 -41 -14 -82 0 -54 19 -64 15 -19 -9 49 -25 144 -23 202 5 83 40 158
145 206 289 12 33 68 283 126 554 58 271 108 503 112 516 5 22 8 22 149 22
125 0 144 -2 144 -16 0 -16 -226 -1309 -237 -1351 -5 -23 -3 -23 85 -23 l90 0
6 27 c16 75 236 1339 236 1355 0 17 -18 18 -325 18 -179 0 -325 -4 -325 -8z"/>
<path d="M13046 1328 c-9 -51 -65 -367 -124 -701 l-108 -608 206 3 206 3 66
33 c78 38 149 111 185 188 30 67 66 265 59 324 -9 63 -50 143 -91 175 -56 42
-100 56 -206 62 -78 5 -99 9 -99 21 0 8 23 143 50 299 28 156 50 286 50 289 0
2 -40 4 -89 4 l-89 0 -16 -92z m270 -553 c61 -42 67 -126 25 -365 -38 -213
-38 -215 -74 -282 -39 -76 -82 -98 -190 -98 -61 0 -77 3 -77 15 0 13 110 641
126 718 6 27 6 27 88 27 55 0 88 -5 102 -15z"/>
</g>
</svg>
