<svg  viewBox="0 0 100 40" fill="none" xmlns="http://www.w3.org/2000/svg">
<path fill-rule="evenodd" clip-rule="evenodd" d="M37.5527 0.162775C37.1668 0.302215 36.9048 0.535971 36.8262 0.811135C36.6718 1.3512 35.9837 3.7192 35.7757 4.42648C35.6897 4.71846 35.4667 5.43512 35.2801 6.01907C34.7209 7.76791 33.7283 11.0759 33.4092 12.2537C33.2448 12.8603 33.0218 13.4301 32.9133 13.5198C32.8049 13.6095 32.2424 13.7206 31.6633 13.767C31.0842 13.8134 30.022 13.9402 29.3026 14.0489C28.5468 14.1632 27.9294 14.1807 27.8399 14.0905C27.7504 14.0002 27.8308 13.3843 28.0303 12.631C28.7386 9.95683 29.6452 5.15058 29.6452 4.0701C29.6452 3.34529 29.5838 3.23364 28.9169 2.74648C28.3513 2.33329 28.0029 2.21456 27.357 2.21456C26.0685 2.21456 25.8034 2.53591 25.6044 4.33801C25.4215 5.99412 24.7427 9.36899 23.7712 13.4511C22.5401 18.6239 21.9361 22.3756 21.8756 25.2244C21.8252 27.5882 22.0467 28.0499 23.2303 28.0499C24.6902 28.0499 25.1944 27.2836 25.6173 24.4223C25.7325 23.6437 26.0182 22.041 26.2519 20.8607C26.4858 19.6805 26.7175 18.4915 26.7664 18.2188C26.8156 17.946 26.8914 17.6646 26.9349 17.5936C26.9784 17.5225 27.7048 17.4151 28.5491 17.3551C29.3932 17.2951 30.5117 17.1684 31.0345 17.0739C31.5573 16.9793 32.018 16.935 32.0582 16.9755C32.1271 17.0451 31.7656 19.9512 31.3939 22.3134C30.9924 24.8649 31.3837 27.1444 32.2719 27.4287C32.7715 27.5887 33.9652 27.3716 34.2079 27.0766C34.6647 26.5215 35.0855 24.9164 35.0883 23.717C35.0948 21.0949 36.3547 15.2902 38.0845 9.91206C39.2748 6.21124 39.8422 4.41781 40.2598 3.03633L40.7337 1.46905L40.1698 0.882448C39.8595 0.559683 39.3982 0.245945 39.1444 0.185072C38.8905 0.1242 38.5644 0.0450997 38.4196 0.009355C38.2749 -0.0262128 37.8848 0.0428001 37.5527 0.162775ZM4.75147 1.4625C4.34644 1.8518 4.13498 2.37364 3.69362 4.07258C3.39038 5.24047 3.06712 6.59417 2.97552 7.0808C2.88374 7.56742 2.72404 8.24427 2.6205 8.58491C2.24671 9.81509 1.08988 15.7772 0.440047 19.8215C-0.0599229 22.9343 -0.129241 24.4593 0.208576 24.925C0.505855 25.3349 1.93329 25.3651 2.52539 24.9739C3.26964 24.4821 3.54674 23.7851 4.11567 20.9717C4.61933 18.4811 4.76077 17.9635 4.93714 17.9635C5.03436 17.9635 5.362 18.1721 5.6656 18.4269C7.60844 20.0588 8.21405 20.6061 8.76123 21.2244C10.589 23.2903 10.5912 23.2923 11.3071 23.382C12.2038 23.4942 13.1006 23.0182 13.4156 22.2626C13.7972 21.3472 13.239 20.5003 10.3978 17.6844C9.01551 16.3143 7.88448 15.1034 7.88448 14.9933C7.88448 14.8832 8.25968 14.5743 8.71806 14.3067C13.0514 11.7779 16.186 8.30496 17.1916 4.91877C17.3732 4.30704 17.3709 4.12106 17.1795 3.88837C16.4914 3.05226 14.3349 2.59996 13.8495 3.18957C13.7286 3.33662 13.5626 3.81829 13.4808 4.25997C13.3991 4.70165 13.0374 5.51705 12.6773 6.07198C11.8133 7.4032 8.7765 10.4817 7.42453 11.3969C6.44196 12.0619 5.77861 12.307 5.77861 12.0047C5.77861 11.9391 6.18101 10.207 6.67291 8.15597C7.74936 3.66717 7.90396 2.37116 7.42663 1.83924C6.57323 0.888463 5.5052 0.737876 4.75147 1.4625ZM69.496 4.23413C68.7893 4.96955 68.7976 5.5374 69.5251 6.21673C70.2859 6.92702 70.9017 7.16927 71.9464 7.16927C72.9984 7.16927 73.6465 6.68123 73.3461 6.11516C73.2473 5.92918 73.1641 5.59243 73.1609 5.36717C73.1523 4.73509 72.8131 4.43321 71.7626 4.12265C70.0871 3.62736 70.079 3.62771 69.496 4.23413ZM42.3376 9.84624C41.2027 10.0496 40.6136 10.4415 39.6651 11.6236C37.7359 14.0277 36.8467 17.0369 36.8416 21.1794C36.8392 23.1843 37.1416 24.0978 38.1282 25.0668C39.216 26.1354 39.9138 26.3886 41.0055 26.1113C42.6544 25.6927 44.7352 23.8647 45.3945 22.2553C45.5638 21.842 45.7419 21.508 45.7902 21.5132C45.8385 21.5183 46.1378 22.072 46.4555 22.7434C47.1418 24.1947 47.9319 25.065 49.0139 25.5621C50.0955 26.0588 50.8031 26.0181 51.8774 25.3966C52.9621 24.7695 53.4782 24.1091 54.0912 22.5643C55.4749 19.0774 56.5149 16.9017 56.798 16.9017C56.8538 16.9017 56.848 17.9567 56.7851 19.2464C56.657 21.8773 56.8455 23.4935 57.4148 24.6453C57.9762 25.781 58.3184 26.0179 59.3655 25.9961C61.0892 25.9602 62.226 24.9804 64.4768 21.591L65.1818 20.5293L65.3027 21.9993C65.4928 24.3133 66.3981 25.7495 67.6665 25.7495C67.9415 25.7495 68.6758 25.4509 69.2982 25.0859C70.4222 24.4267 71.0075 23.7656 71.766 22.2988C71.9673 21.9095 72.2265 21.4312 72.3421 21.2361C72.4578 21.0409 72.8424 20.364 73.1971 19.7319C73.5518 19.0999 74.2005 18.1847 74.6389 17.698C75.3072 16.9564 75.4372 16.8752 75.4421 17.1957C75.4453 17.4059 75.2838 18.0827 75.0834 18.6998C73.9464 22.1989 74.1851 23.6895 75.9202 23.9242C77.0694 24.0797 77.9574 23.4351 79.5719 21.2739C80.7193 19.7381 80.8881 19.6805 80.8881 20.8239C80.8881 22.0591 81.1929 22.9822 81.8561 23.7559C82.3861 24.3742 82.4791 24.4113 83.6628 24.4787C84.6818 24.537 85.1472 24.4653 86.2017 24.088C87.9758 23.4533 88.0832 23.468 88.0832 24.3455C88.0832 25.265 88.3055 25.6725 89.0097 26.0437C90.0058 26.5687 91.4834 26.4467 92.9553 25.7176C94.0735 25.1637 94.2253 25.1271 94.2253 25.4113C94.2253 25.589 93.6026 27.4696 92.8416 29.5906C91.3081 33.8642 90.4918 36.3154 90.113 37.7823C89.8944 38.6292 89.8947 38.8069 90.1157 39.1512C90.5748 39.867 91.1665 40.144 91.7781 39.929C92.5295 39.6648 93.6988 38.6988 93.6988 38.3422C93.6988 37.2081 95.3 32.258 96.5988 29.377C97.4485 27.4919 98.8319 23.7017 99.052 22.6556C99.1955 21.9727 99.47 20.8169 99.6618 20.0869C100.065 18.5536 100.101 17.8253 99.8074 17.1313C99.4224 16.2191 98.9572 15.84 98.2229 15.84C97.5089 15.84 97.2253 16.0487 96.2955 17.258C95.8331 17.8594 95.8208 17.8638 95.8103 17.4326C95.797 16.8982 95.7131 16.7731 94.9374 16.1297C94.4164 15.6976 94.2355 15.6445 93.6212 15.7431C92.7426 15.8841 90.9963 16.8361 89.6032 17.9334C87.2573 19.7811 86.7317 20.1692 85.9262 20.6482C84.9666 21.2187 84.6558 21.2668 84.5044 20.8687C84.2966 20.3228 84.4061 19.756 85.0998 17.7865C85.4859 16.6905 85.8018 15.6473 85.8018 15.4684C85.8018 14.8271 85.0983 13.7808 84.4016 13.386C83.7668 13.0263 83.6401 13.0114 82.9604 13.2167C82.4708 13.3646 81.815 13.8227 81.0478 14.5525C80.4057 15.1634 79.8306 15.6631 79.7699 15.6631C79.7093 15.6631 79.6591 15.4044 79.6586 15.088C79.6558 13.3915 78.8103 12.3027 77.3888 12.165C75.4642 11.9785 73.0465 13.9618 70.5791 17.7511C69.7996 18.9482 69.1266 19.864 69.0838 19.7861C68.9467 19.5375 69.4483 17.0338 69.91 15.662C70.4575 14.0347 70.4645 13.6975 69.9667 12.9316C69.5866 12.3468 69.0919 12.124 68.1734 12.124C67.4459 12.124 63.9026 16.2203 62.3429 18.8645C61.8824 19.6451 61.2886 20.5382 61.0236 20.8489C60.6147 21.3284 60.5125 21.3737 60.3502 21.1486C60.1168 20.8246 60.2488 18.4768 60.6138 16.4594C60.9413 14.6505 60.947 13.5074 60.6326 12.7486C60.3413 12.0458 59.0858 11.0623 58.4798 11.0623C57.7986 11.0623 56.7437 11.7064 55.6499 12.7902C54.458 13.971 53.6956 15.1301 52.6546 17.3441C51.0087 20.8441 50.606 21.591 50.3645 21.591C49.8782 21.591 49.49 19.8726 49.2972 16.8667C49.1954 15.2801 49.0306 13.7258 48.9311 13.4127C48.7211 12.752 47.3784 11.3086 46.4906 10.789C45.2876 10.0851 43.3981 9.65601 42.3376 9.84624ZM44.4951 13.3289C44.3626 14.335 43.6706 17.1385 43.1905 18.6131C42.6763 20.1922 41.4849 22.2988 41.1059 22.2988C40.0936 22.2988 41.1362 15.2996 42.4108 13.5396C43.0485 12.6589 43.3202 12.4779 44.0037 12.4779H44.6071L44.4951 13.3289ZM16.0684 18.0764C15.2322 18.9857 15.5927 20.0602 16.8385 20.372C17.518 20.542 17.7189 20.5213 18.3261 20.2188C19.7219 19.5228 19.9499 19.0356 19.2474 18.2487C18.9312 17.8945 18.6215 17.7833 17.6917 17.6899C16.5749 17.5779 16.5133 17.5926 16.0684 18.0764ZM94.2253 19.9087C94.2253 20.0052 93.7453 20.5826 93.1587 21.1916C91.926 22.471 91.9831 22.158 93.2457 20.7139C94.1411 19.6895 94.2253 19.6203 94.2253 19.9087Z" fill="#111111"/>
</svg>
