<svg  viewBox="0 0 56 17" fill="none" xmlns="http://www.w3.org/2000/svg">
<path d="M5.46408 12.6947H3.27047C2.81846 12.6947 2.39303 12.6075 1.99419 12.4331C1.59535 12.2588 1.24969 12.0241 0.957212 11.729C0.66473 11.4205 0.432075 11.0651 0.259245 10.6627C0.086415 10.2604 0 9.83116 0 9.37515V0.603551L2.39303 0V3.8426H3.78896L4.38722 6.2568H2.39303V9.37515C2.39303 9.62998 2.47944 9.84458 2.65227 10.0189C2.8251 10.1933 3.03117 10.2805 3.27047 10.2805H4.86583L5.46408 12.6947Z" fill="#111111"/>
<path d="M15.863 2.61538V12.6947H13.47V7.66509C13.47 6.86036 13.1908 6.17633 12.6324 5.61302C12.074 5.0497 11.396 4.76805 10.5983 4.76805C10.2128 4.76805 9.84055 4.84181 9.4816 4.98935C9.13594 5.13688 8.83016 5.34477 8.56427 5.61302C8.0059 6.17633 7.72671 6.86036 7.72671 7.66509C7.72671 8.45641 8.0059 9.13373 8.56427 9.69704C8.83016 9.9787 9.13594 10.1933 9.4816 10.3408C9.84055 10.475 10.2128 10.542 10.5983 10.542C10.9972 10.542 11.3561 10.475 11.6752 10.3408L12.5327 12.4935C11.9212 12.802 11.2099 12.9562 10.3989 12.9562C9.66772 12.9562 8.9897 12.8221 8.36485 12.5538C7.7533 12.2722 7.22152 11.8899 6.7695 11.4071C6.31748 10.9243 5.96518 10.3609 5.71258 9.71716C5.45998 9.07337 5.33368 8.38935 5.33368 7.66509C5.33368 6.92742 5.45998 6.23669 5.71258 5.5929C5.96518 4.94911 6.31748 4.3858 6.7695 3.90296C7.22152 3.42012 7.7533 3.04458 8.36485 2.77633C8.9897 2.49467 9.66772 2.35385 10.3989 2.35385C11.0504 2.35385 11.6287 2.45444 12.1339 2.65562C12.6391 2.8568 13.0844 3.11164 13.47 3.42012V2.61538H15.863Z" fill="#111111"/>
<path d="M27.4893 11.6888C27.4893 12.413 27.3497 13.097 27.0705 13.7408C26.8046 14.3846 26.4324 14.9479 25.9538 15.4308C25.4752 15.9136 24.9168 16.2959 24.2787 16.5775C23.6405 16.8592 22.9558 17 22.2246 17C21.6264 17 21.0614 16.9061 20.5296 16.7183C19.9978 16.5306 19.5059 16.2623 19.0539 15.9136L20.7888 14.1834C21.2142 14.4517 21.6929 14.5858 22.2246 14.5858C23.0356 14.5858 23.7136 14.2974 24.2587 13.7207C24.8171 13.1574 25.0963 12.4801 25.0963 11.6888V7.64497C25.0963 6.86706 24.8171 6.18304 24.2587 5.5929C23.7003 5.02959 23.0223 4.74793 22.2246 4.74793C21.4535 4.74793 20.7755 5.02959 20.1906 5.5929C19.6322 6.18304 19.353 6.86706 19.353 7.64497C19.353 8.4497 19.6322 9.13373 20.1906 9.69704C20.7755 10.2604 21.4535 10.542 22.2246 10.542C22.6235 10.542 22.9824 10.475 23.3015 10.3408L24.1989 12.5941C23.6006 12.8355 22.9558 12.9562 22.2645 12.9562H22.2246C21.5067 12.9562 20.8287 12.8221 20.1906 12.5538C19.5524 12.2722 18.994 11.8899 18.5154 11.4071C18.0368 10.9243 17.6579 10.3609 17.3788 9.71716C17.0996 9.07337 16.96 8.38264 16.96 7.64497C16.96 6.9073 17.0796 6.21657 17.3189 5.57278C17.5582 4.92899 17.8906 4.36568 18.316 3.88284C18.7547 3.4 19.2732 3.02446 19.8715 2.75621C20.483 2.47456 21.1478 2.33373 21.8657 2.33373C22.557 2.33373 23.1686 2.44103 23.7003 2.65562C24.2321 2.8568 24.6974 3.11164 25.0963 3.42012V2.6355H27.4893V11.6888Z" fill="#111111"/>
<path d="M31.0837 3.4C31.4559 3.09152 31.8747 2.83669 32.34 2.6355C32.8186 2.43432 33.3571 2.33373 33.9553 2.33373V4.74793C33.1576 4.74793 32.4796 5.02959 31.9212 5.5929C31.3629 6.18304 31.0837 6.86706 31.0837 7.64497V12.6947H28.6906V7.64497V2.61538H31.0837V3.4Z" fill="#111111"/>
<path d="M42.0136 8.87219H36.7888C36.9217 9.18067 37.1145 9.45562 37.3671 9.69704C37.6463 9.9787 37.9587 10.1933 38.3044 10.3408C38.65 10.475 39.0156 10.542 39.4012 10.542C39.9462 10.542 40.4315 10.4146 40.8569 10.1598L43.3497 11.1657C42.8711 11.729 42.2927 12.1716 41.6147 12.4935C40.9367 12.802 40.1988 12.9562 39.4012 12.9562C38.67 12.9562 37.9853 12.8221 37.3471 12.5538C36.709 12.2722 36.1506 11.8899 35.672 11.4071C35.1934 10.9243 34.8145 10.3609 34.5353 9.71716C34.2694 9.07337 34.1365 8.38935 34.1365 7.66509C34.1365 6.92742 34.2694 6.23669 34.5353 5.5929C34.8145 4.94911 35.1934 4.3858 35.672 3.90296C36.1506 3.42012 36.709 3.04458 37.3471 2.77633C37.9853 2.49467 38.67 2.35385 39.4012 2.35385C40.1324 2.35385 40.817 2.49467 41.4552 2.77633C42.0933 3.04458 42.6517 3.42012 43.1303 3.90296C43.6089 4.3858 43.9812 4.94911 44.2471 5.5929C44.5262 6.23669 44.6658 6.92742 44.6658 7.66509C44.6658 8.09428 44.6193 8.49665 44.5262 8.87219H42.0136ZM39.4012 4.76805C38.6301 4.76805 37.9521 5.0497 37.3671 5.61302C37.1145 5.86785 36.9217 6.14951 36.7888 6.45799H42.0136C41.8806 6.14951 41.6878 5.86785 41.4352 5.61302C40.8769 5.0497 40.1988 4.76805 39.4012 4.76805Z" fill="#111111"/>
<path d="M53.3477 8.87219H48.1229C48.2559 9.18067 48.4487 9.45562 48.7013 9.69704C48.9804 9.9787 49.2929 10.1933 49.6385 10.3408C49.9842 10.475 50.3498 10.542 50.7353 10.542C51.2804 10.542 51.7657 10.4146 52.1911 10.1598L54.6838 11.1657C54.2052 11.729 53.6269 12.1716 52.9489 12.4935C52.2709 12.802 51.533 12.9562 50.7353 12.9562C50.0041 12.9562 49.3195 12.8221 48.6813 12.5538C48.0432 12.2722 47.4848 11.8899 47.0062 11.4071C46.5276 10.9243 46.1487 10.3609 45.8695 9.71716C45.6036 9.07337 45.4707 8.38935 45.4707 7.66509C45.4707 6.92742 45.6036 6.23669 45.8695 5.5929C46.1487 4.94911 46.5276 4.3858 47.0062 3.90296C47.4848 3.42012 48.0432 3.04458 48.6813 2.77633C49.3195 2.49467 50.0041 2.35385 50.7353 2.35385C51.4665 2.35385 52.1512 2.49467 52.7894 2.77633C53.4275 3.04458 53.9859 3.42012 54.4645 3.90296C54.9431 4.3858 55.3153 4.94911 55.5812 5.5929C55.8604 6.23669 56 6.92742 56 7.66509C56 8.09428 55.9535 8.49665 55.8604 8.87219H53.3477ZM50.7353 4.76805C49.9642 4.76805 49.2862 5.0497 48.7013 5.61302C48.4487 5.86785 48.2559 6.14951 48.1229 6.45799H53.3477C53.2148 6.14951 53.022 5.86785 52.7694 5.61302C52.211 5.0497 51.533 4.76805 50.7353 4.76805Z" fill="#111111"/>
</svg>
