<svg viewBox="0 0 1614 600" fill="none" xmlns="http://www.w3.org/2000/svg">
<path fill-rule="evenodd" clip-rule="evenodd" d="M1615 0H245V1.08033H265.881V598H277.401V1.08033H1615V0ZM1.98004 126H0.540039L23.04 0.179688H27L54.9 126H43.2L34.38 86.7597H9.00004L1.98004 126ZM20.7 21.4197H20.34L19.08 28.4397L9.18004 85.6797H34.02L22.14 28.4397L20.7 21.4197ZM115.786 126V0.179688H127.306V62.6397H157.186V0.179688H168.706V126H157.186V63.7197H127.306V126H115.786ZM197.208 0.179688V126H235.908V124.92H208.728V62.2797H232.128V61.1997H208.728V1.2597H235.908V0.179688H197.208ZM638.137 577.4C637.337 572.734 637.404 567.6 638.337 562L650.537 493C651.471 487.534 653.137 482.6 655.537 478.2C658.071 473.667 661.071 469.8 664.537 466.6C668.137 463.4 672.204 460.934 676.737 459.2C681.271 457.334 686.071 456.4 691.137 456.4C696.071 456.4 700.471 457.334 704.337 459.2C708.204 460.934 711.337 463.4 713.737 466.6C716.137 469.8 717.737 473.667 718.537 478.2C719.471 482.6 719.404 487.534 718.337 493L706.137 562C705.337 567.6 703.671 572.734 701.137 577.4C698.604 581.934 695.537 585.934 691.937 589.4C688.471 592.734 684.471 595.267 679.937 597C675.537 598.734 670.737 599.6 665.537 599.6C660.471 599.6 656.004 598.734 652.137 597C648.404 595.134 645.337 592.6 642.937 589.4C640.537 586.067 638.937 582.067 638.137 577.4ZM673.537 471C672.337 473.934 671.404 477.267 670.737 481L654.137 575.2C653.471 578.934 653.204 582.334 653.337 585.4C653.604 588.334 654.204 590.8 655.137 592.8C656.071 594.667 657.404 596.067 659.137 597C661.004 597.934 663.271 598.4 665.937 598.4C668.604 598.4 670.937 597.934 672.937 597C675.071 596.067 677.004 594.6 678.737 592.6C680.471 590.6 681.871 588.2 682.937 585.4C684.137 582.467 685.071 579.067 685.737 575.2L702.537 481C703.204 477.134 703.471 473.734 703.337 470.8C703.204 467.867 702.604 465.467 701.537 463.6C700.604 461.6 699.204 460.134 697.337 459.2C695.604 458.134 693.471 457.6 690.937 457.6C688.271 457.6 685.871 458.134 683.737 459.2C681.604 460.134 679.671 461.6 677.937 463.6C676.337 465.6 674.871 468.067 673.537 471ZM564.8 598H546.8L571.6 458.2H638L613.2 598H595L619.6 459.4H589.4L564.8 598ZM787.312 598L774.912 539.6C774.246 536.4 773.379 533.8 772.312 531.8C771.379 529.667 770.246 528 768.912 526.8C767.579 525.6 766.046 524.8 764.312 524.4C762.579 524 760.712 523.8 758.712 523.8H756.696L801.712 458.2H799.712L754.941 523.8H748.369L759.912 458.2H741.912L717.112 598H735.312L748.158 525H748.912C750.912 525.134 752.446 525.867 753.512 527.2C754.579 528.534 755.446 531.067 756.112 534.8L768.512 598H787.312ZM796.198 598H794.598L846.198 458.2H851.398L860.598 598H841.998L838.998 554.4H812.198L796.198 598ZM835.598 491.2H835.198L832.198 499.2L812.798 553.2H838.998L836.198 499.2L835.598 491.2ZM897.326 599.6C903.46 599.6 909.193 598.8 914.526 597.2C919.993 595.6 924.793 593.334 928.926 590.4C933.06 587.467 936.526 583.867 939.326 579.6C942.126 575.2 943.993 570.267 944.926 564.8L946.526 555.8C947.326 551.267 947.393 547.267 946.726 543.8C946.06 540.334 944.726 537.4 942.726 535C940.726 532.467 938.126 530.467 934.926 529C931.86 527.534 928.193 526.667 923.926 526.4L919.726 526L919.926 525.2L924.326 525C928.326 524.734 931.993 523.934 935.326 522.6C938.793 521.134 941.793 519.267 944.326 517C946.993 514.6 949.193 511.667 950.926 508.2C952.793 504.6 954.126 500.6 954.926 496.2L956.126 489C957.06 483.934 956.993 479.4 955.926 475.4C954.86 471.4 952.926 468 950.126 465.2C947.326 462.4 943.793 460.267 939.526 458.8C935.26 457.2 930.393 456.4 924.926 456.4C918.66 456.4 912.593 457.4 906.726 459.4C900.86 461.4 895.793 464.267 891.526 468L892.326 468.8C896.06 465.6 900.193 463.134 904.726 461.4C909.393 459.667 913.86 458.8 918.126 458.8C925.726 458.8 931.393 461.467 935.126 466.8C938.86 472 939.926 479.334 938.326 488.8L936.726 497.2C935.126 506.4 931.993 513.334 927.326 518C922.66 522.667 916.926 525 910.126 525H905.526L905.326 526.2H909.926C913.66 526.2 916.86 526.8 919.526 528C922.326 529.2 924.526 531 926.126 533.4C927.86 535.667 928.926 538.534 929.326 542C929.726 545.467 929.593 549.467 928.926 554L926.726 565.6C924.993 575.734 920.86 583.6 914.326 589.2C907.926 594.667 900.26 597.4 891.326 597.4C887.193 597.4 883.06 596.8 878.926 595.6C874.926 594.4 870.993 592.6 867.126 590.2L866.326 591.2C870.46 594 875.193 596.134 880.526 597.6C885.86 598.934 891.46 599.6 897.326 599.6ZM945.222 598H943.622L995.222 458.2H1000.42L1009.62 598H991.022L988.022 554.4H961.222L945.222 598ZM984.622 491.2H984.222L981.222 499.2L961.822 553.2H988.022L985.222 499.2L984.622 491.2ZM1010.43 595.8C1012.43 597.134 1014.56 598.067 1016.83 598.6C1019.09 599.267 1021.49 599.6 1024.03 599.6C1027.76 599.6 1031.36 598.734 1034.83 597C1038.29 595.267 1041.49 592.6 1044.43 589C1047.36 585.267 1050.03 580.6 1052.43 575C1054.96 569.267 1057.03 562.467 1058.63 554.6L1079.03 459.4H1108.43L1084.03 598H1102.03L1126.63 458.2H1061.23L1038.23 567.4C1037.03 573.4 1035.76 578.334 1034.43 582.2C1033.09 585.934 1031.69 589 1030.23 591.4C1028.89 593.667 1027.43 595.267 1025.83 596.2C1024.23 597.134 1022.56 597.6 1020.83 597.6C1019.09 597.6 1017.49 597.4 1016.03 597C1014.43 596.467 1012.83 595.667 1011.23 594.6L1010.43 595.8ZM1127 577.4C1126.2 572.734 1126.27 567.6 1127.2 562L1139.4 493C1140.34 487.534 1142 482.6 1144.4 478.2C1146.94 473.667 1149.94 469.8 1153.4 466.6C1157 463.4 1161.07 460.934 1165.6 459.2C1170.14 457.334 1174.94 456.4 1180 456.4C1184.94 456.4 1189.34 457.334 1193.2 459.2C1197.07 460.934 1200.2 463.4 1202.6 466.6C1205 469.8 1206.6 473.667 1207.4 478.2C1208.34 482.6 1208.27 487.534 1207.2 493L1195 562C1194.2 567.6 1192.54 572.734 1190 577.4C1187.47 581.934 1184.4 585.934 1180.8 589.4C1177.34 592.734 1173.34 595.267 1168.8 597C1164.4 598.734 1159.6 599.6 1154.4 599.6C1149.34 599.6 1144.87 598.734 1141 597C1137.27 595.134 1134.2 592.6 1131.8 589.4C1129.4 586.067 1127.8 582.067 1127 577.4ZM1162.4 471C1161.2 473.934 1160.27 477.267 1159.6 481L1143 575.2C1142.34 578.934 1142.07 582.334 1142.2 585.4C1142.47 588.334 1143.07 590.8 1144 592.8C1144.94 594.667 1146.27 596.067 1148 597C1149.87 597.934 1152.14 598.4 1154.8 598.4C1157.47 598.4 1159.8 597.934 1161.8 597C1163.94 596.067 1165.87 594.6 1167.6 592.6C1169.34 590.6 1170.74 588.2 1171.8 585.4C1173 582.467 1173.94 579.067 1174.6 575.2L1191.4 481C1192.07 477.134 1192.34 473.734 1192.2 470.8C1192.07 467.867 1191.47 465.467 1190.4 463.6C1189.47 461.6 1188.07 460.134 1186.2 459.2C1184.47 458.134 1182.34 457.6 1179.8 457.6C1177.14 457.6 1174.74 458.134 1172.6 459.2C1170.47 460.134 1168.54 461.6 1166.8 463.6C1165.2 465.6 1163.74 468.067 1162.4 471ZM1212.75 561.8C1211.82 567.534 1211.68 572.734 1212.35 577.4C1213.15 582.067 1214.75 586.067 1217.15 589.4C1219.55 592.734 1222.68 595.267 1226.55 597C1230.42 598.734 1234.88 599.6 1239.95 599.6C1247.28 599.6 1253.88 597.934 1259.75 594.6C1265.75 591.134 1270.62 586.267 1274.35 580L1273.15 579.4C1271.68 582.2 1269.82 584.734 1267.55 587C1265.42 589.267 1263.02 591.2 1260.35 592.8C1257.68 594.4 1254.82 595.667 1251.75 596.6C1248.68 597.534 1245.62 598 1242.55 598C1236.42 598 1232.22 596.067 1229.95 592.2C1227.68 588.334 1227.28 582.134 1228.75 573.6L1245.15 481.6C1246.48 474 1249.08 468.2 1252.95 464.2C1256.95 460.2 1262.02 458.2 1268.15 458.2C1272.42 458.2 1276.22 459.067 1279.55 460.8C1283.02 462.534 1285.95 465.067 1288.35 468.4L1289.35 467.6C1286.55 463.867 1283.15 461.067 1279.15 459.2C1275.15 457.334 1270.55 456.4 1265.35 456.4C1260.15 456.4 1255.28 457.334 1250.75 459.2C1246.35 460.934 1242.35 463.4 1238.75 466.6C1235.28 469.8 1232.35 473.667 1229.95 478.2C1227.55 482.734 1225.88 487.734 1224.95 493.2L1212.75 561.8ZM1306.17 458.2H1324.17L1313.37 519.4H1326.37C1331.04 519.4 1335.17 520.267 1338.77 522C1342.5 523.6 1345.57 525.934 1347.97 529C1350.37 531.934 1352.04 535.467 1352.97 539.6C1354.04 543.6 1354.1 548 1353.17 552.8L1350.97 565.4C1350.17 569.934 1348.64 574.2 1346.37 578.2C1344.1 582.067 1341.37 585.467 1338.17 588.4C1334.97 591.334 1331.37 593.667 1327.37 595.4C1323.5 597.134 1319.5 598 1315.37 598H1281.37L1306.17 458.2ZM1328.97 583C1330.17 579.8 1331.17 575.867 1331.97 571.2L1336.17 546.8C1337.77 538.134 1337.5 531.6 1335.37 527.2C1333.37 522.8 1329.9 520.6 1324.97 520.6H1313.17L1299.57 596.8H1312.37C1315.04 596.8 1317.37 596.334 1319.37 595.4C1321.37 594.467 1323.17 593 1324.77 591C1326.37 588.867 1327.77 586.2 1328.97 583Z" fill="#111111"/>
</svg>
