<svg viewBox="0 0 23 13" fill="none" xmlns="http://www.w3.org/2000/svg">
<path fill-rule="evenodd" clip-rule="evenodd" d="M11.2365 12.9851H12.6136C12.6136 12.9851 13.0152 12.9279 13.2448 12.6991C13.4456 12.4989 13.4456 12.0985 13.4456 12.0985C13.4456 12.0985 13.4169 10.268 14.2776 9.98195C15.1095 9.72454 16.1997 11.7553 17.3473 12.5275C18.208 13.1281 18.8678 12.9851 18.8678 12.9851L21.9375 12.9565C21.9375 12.9565 23.5441 12.8707 22.7695 11.6122C22.7121 11.4978 22.3392 10.6684 20.5031 8.9809C18.5809 7.2076 18.8391 7.49361 21.1629 4.40464C22.5687 2.54554 23.1425 1.40148 22.9703 0.886649C22.7982 0.429023 21.7654 0.54343 21.7654 0.54343L18.3227 0.572032C18.3227 0.572032 18.0645 0.54343 17.8637 0.657836C17.6342 0.800844 17.5194 1.05826 17.5194 1.05826C17.5194 1.05826 16.9743 2.51694 16.2571 3.74681C14.7079 6.34955 14.1054 6.49256 13.8472 6.32095C13.2735 5.94913 13.4169 4.80507 13.4169 4.00422C13.4169 1.48728 13.7899 0.429023 12.671 0.171609C12.298 0.0858043 12.0111 0.0286016 11.0644 0C9.83077 0 8.79796 0 8.1955 0.286016C7.79385 0.486227 7.50696 0.91525 7.67909 0.91525C7.90861 0.943852 8.42501 1.05826 8.68321 1.43008C9.02748 1.91631 9.02748 2.97456 9.02748 2.97456C9.02748 2.97456 9.2283 5.94913 8.53976 6.32095C8.08074 6.57836 7.44958 6.06354 6.07251 3.6896C5.38397 2.48834 4.83888 1.14406 4.83888 1.14406C4.83888 1.14406 4.72412 0.886649 4.55199 0.772242C4.40854 0.657836 4.12165 0.572032 3.80608 0.572032L0.736351 0.600633C0.736351 0.600633 0.248638 0.600633 0.076504 0.829446C-0.09563 1.02966 0.076504 1.40148 0.076504 1.40148C0.076504 1.40148 2.65852 7.37921 5.55611 10.3824C8.22418 13.1853 11.2365 12.9851 11.2365 12.9851Z" fill="#F3F3F3"/>
</svg>
