<svg viewBox="0 0 24 24" fill="none" xmlns="http://www.w3.org/2000/svg">
<path d="M20.1602 6.84024C17.2802 2.40024 11.4002 1.08024 6.84022 3.84024C2.40022 6.60024 0.960224 12.6002 3.84022 17.0402L4.08022 17.4002L3.12022 21.0002L6.72022 20.0402L7.08022 20.2802C8.64022 21.1202 10.3202 21.6002 12.0002 21.6002C13.8002 21.6002 15.6002 21.1202 17.1602 20.1602C21.6002 17.2802 22.9202 11.4002 20.1602 6.84024ZM17.6402 16.0802C17.1602 16.8002 16.5602 17.2802 15.7202 17.4002C15.2402 17.4002 14.6402 17.6402 12.2402 16.6802C10.2002 15.7202 8.52022 14.1602 7.32022 12.3602C6.60022 11.5202 6.24022 10.4402 6.12022 9.36024C6.12022 8.40024 6.48022 7.56024 7.08022 6.96024C7.32022 6.72024 7.56022 6.60024 7.80022 6.60024H8.40022C8.64022 6.60024 8.88022 6.60024 9.00023 7.08024C9.24022 7.68024 9.84022 9.12024 9.84022 9.24024C9.96022 9.36024 9.96022 9.60024 9.84022 9.72024C9.96022 9.96024 9.84023 10.2002 9.72023 10.3202C9.60023 10.4402 9.48023 10.6802 9.36023 10.8002C9.12022 10.9202 9.00022 11.1602 9.12022 11.4002C9.60022 12.1202 10.2002 12.8402 10.8002 13.4402C11.5202 14.0402 12.2402 14.5202 13.0802 14.8802C13.3202 15.0002 13.5602 15.0002 13.6802 14.7602C13.8002 14.5202 14.4002 13.9202 14.6402 13.6802C14.8802 13.4402 15.0002 13.4402 15.2402 13.5602L17.1602 14.5202C17.4002 14.6402 17.6402 14.7602 17.7602 14.8802C17.8802 15.2402 17.8802 15.7202 17.6402 16.0802Z" fill="#F3F3F3"/>
</svg>
